<?xml version="1.0" encoding="utf-8"?>
<!-- Generator: Adobe Illustrator 13.0.1, SVG Export Plug-In . SVG Version: 6.00 Build 14948)  -->
<!DOCTYPE svg PUBLIC "-//W3C//DTD SVG 1.1//EN" "http://www.w3.org/Graphics/SVG/1.1/DTD/svg11.dtd">
<svg version="1.1" id="Layer_1" xmlns="http://www.w3.org/2000/svg" xmlns:xlink="http://www.w3.org/1999/xlink" x="0px" y="0px"
	 width="329.333px" height="280.001px" viewBox="29.167 70.5 329.333 280.001" enable-background="new 29.167 70.5 329.333 280.001"
	 xml:space="preserve">
<g>
	<path fill="#5E2B08" d="M335.986,92.777c-0.029,0.042-0.063,0.088-0.092,0.131c-0.137,0.197-0.285,0.407-0.445,0.638
		c0.077-0.388,0.087-0.714,0.038-0.986c-0.302-0.237-0.628-0.447-0.967-0.644c0,0-0.001,0-0.002,0.001l0.002-0.001
		c-0.156-0.091-0.313-0.181-0.476-0.263c-0.996-0.497-2.14-0.839-3.449-1.001c-60.661-7.506-139.507,25.151-197.421,75.555
		c-31.051,27.024-56.603,58.599-72.693,92.04c-6.237,12.963-25.525,52.888-20.728,68.303c0.204,0.655,0.457,1.262,0.75,1.826
		l0.132-0.067c0.031-0.027,0.154-0.058,0.385-0.121c-0.261,0.089-0.385,0.121-0.385,0.121c-0.047,0.038-0.074,0.086-0.092,0.142
		l0.389,0.659c0.539,0.828,1.193,1.535,1.987,2.091c0.014,0.01,0.026,0.019,0.041,0.028c0.878,0.605,1.918,1.039,3.135,1.274
		c3.201,0.619,6.486,1.084,9.834,1.416c26.816,2.661,58.064-3.678,89.24-15.878c37.192-14.294,74.202-36.783,103.669-62.707
		c31.429-27.646,57.559-60.741,73.376-94.777c6.589-14.181,24.833-54.212,15.212-66.257
		C337.118,93.916,336.546,93.298,335.986,92.777z"/>
	
		<radialGradient id="SVGID_1_" cx="122.4321" cy="134.0908" r="228.9646" gradientTransform="matrix(0.7816 -0.6237 -0.6237 -0.7816 114.7651 390.0255)" gradientUnits="userSpaceOnUse">
		<stop  offset="0" style="stop-color:#AD6913"/>
		<stop  offset="1" style="stop-color:#6B3300"/>
	</radialGradient>
	<path fill="url(#SVGID_1_)" d="M333.533,89.469c-1.323-0.902-2.783-1.638-4.401-2.177c-74.907-25.008-161.702-1.637-218.869,50.334
		c-30.65,27.865-53.545,63.096-64.582,103.143c-4.278,15.523-17.552,63.313-7.934,84.817c5.168-0.761,35.74-9.521,157.588-106.754
		C312.801,125.095,331.062,94.614,333.533,89.469z"/>
	
		<radialGradient id="SVGID_2_" cx="137.2856" cy="112.1157" r="233.5078" gradientTransform="matrix(0.7816 -0.6237 -0.6237 -0.7816 114.7651 390.0255)" gradientUnits="userSpaceOnUse">
		<stop  offset="0" style="stop-color:#945613"/>
		<stop  offset="0.8648" style="stop-color:#713803"/>
		<stop  offset="1" style="stop-color:#6B3300"/>
	</radialGradient>
	<path fill="url(#SVGID_2_)" d="M336.154,91.435c-0.025,0.048-0.054,0.101-0.079,0.15c-0.116,0.224-0.241,0.465-0.378,0.729
		c-5.336,10.288-28.081,49.572-134.195,134.249C70.261,331.291,42.865,330.016,39.807,329.255c0.854,1.226,1.818,2.318,2.913,3.249
		c0.019,0.015,0.037,0.031,0.055,0.046c1.21,1.019,2.569,1.849,4.093,2.461c4.01,1.615,8.081,3.045,12.195,4.317
		c32.951,10.189,68.995,9.629,103.489,1.324c41.218-9.561,80.173-29.967,109.191-56.773c30.948-28.59,54.162-65.679,64.723-106.579
		c4.398-17.042,16.387-65.232,1.801-83.501C337.801,93.216,336.956,92.258,336.154,91.435z"/>
	
		<radialGradient id="SVGID_3_" cx="166.3677" cy="76.2788" r="198.5718" gradientTransform="matrix(0.7816 -0.6237 -0.4444 -0.5569 63.2704 325.4949)" gradientUnits="userSpaceOnUse">
		<stop  offset="0.6762" style="stop-color:#3F1C04"/>
		<stop  offset="1" style="stop-color:#3F1C04"/>
	</radialGradient>
	<path fill="url(#SVGID_3_)" d="M336.154,91.435c-0.025,0.048-0.054,0.101-0.079,0.15c-0.116,0.224-0.241,0.465-0.378,0.729
		c-5.336,10.288-28.081,49.572-134.195,134.249C70.261,331.291,42.865,330.016,39.807,329.255c0.854,1.226,1.818,2.318,2.913,3.249
		c0.019,0.015,0.037,0.031,0.055,0.046c1.21,1.019,2.569,1.849,4.093,2.461c4.01,1.615,8.081,3.045,12.195,4.317
		c32.951,10.189,68.995,9.629,103.489,1.324c41.218-9.561,80.173-29.967,109.191-56.773c30.948-28.59,54.162-65.679,64.723-106.579
		c4.398-17.042,16.387-65.232,1.801-83.501C337.801,93.216,336.956,92.258,336.154,91.435z"/>
	<path fill="#AA5E0B" d="M334.173,89.935c0,0-0.002,0-0.002,0.001c0,0-17.104,38.537-135.531,133.04
		C78.623,318.748,43.788,327.343,39.684,328.063c-0.293,0.051-0.435,0.063-0.435,0.063c-0.046,0.039-0.066,0.096-0.075,0.163
		l0.633,0.966c3.059,0.76,30.455,2.036,161.695-102.692C307.616,141.885,330.359,102.6,335.697,92.313
		c-0.004-0.492-0.073-0.92-0.2-1.289C335.075,90.637,334.631,90.279,334.173,89.935z"/>
	<path fill="#3F1C04" d="M39.25,328.128c0.032-0.028,0.171-0.039,0.434-0.063c4.104-0.722,38.938-9.316,158.956-105.089
		c118.427-94.503,135.531-133.04,135.531-133.04l0.001-0.002c-0.21-0.158-0.421-0.316-0.639-0.465
		c-2.473,5.146-20.732,35.626-138.199,129.363C73.486,316.065,42.916,324.826,37.747,325.587c0.409,0.915,0.864,1.779,1.359,2.594
		L39.25,328.128z"/>
	<path fill="#FFFFFF" d="M123.203,272.894l5.184,6.496c0,0,34.241-24.241,72.126-54.069c36.544-28.772,68.246-58.931,68.246-58.931
		l-4.703-5.894c0,0-44.959,40.015-68.72,58.336C171.575,237.153,123.203,272.894,123.203,272.894z"/>
	<g>
		<g>
			<path opacity="0.59" enable-background="new    " d="M120.778,256.891c-0.845-0.942-2.862-0.627-4.575,0.739
				s-2.467,3.264-1.736,4.297l-0.01,0.008l23.414,29.342c0.811,1.016,2.885,0.708,4.633-0.688c1.748-1.395,2.509-3.349,1.698-4.364
				l0.014-0.011l-23.415-29.342L120.778,256.891z"/>
			<path fill="#FFFFFF" d="M119.309,257.224c-0.832-0.938-2.706-0.725-4.25,0.507c-1.544,1.232-2.167,3.012-1.438,4.032
				l-0.009,0.007l23.209,29.085c0.804,1.007,2.731,0.803,4.306-0.454c1.576-1.258,2.202-3.092,1.399-4.099l0.012-0.01
				l-23.209-29.084L119.309,257.224z"/>
		</g>
		<g>
			<path opacity="0.59" enable-background="new    " d="M140.745,243.838c-0.845-0.941-2.862-0.627-4.574,0.739
				c-1.713,1.366-2.468,3.264-1.736,4.297l-0.01,0.008l23.416,29.343c0.81,1.016,2.884,0.708,4.632-0.688
				c1.748-1.395,2.508-3.349,1.698-4.363l0.013-0.011l-23.416-29.344L140.745,243.838z"/>
			<path fill="#FFFFFF" d="M139.134,244.244c-0.832-0.938-2.706-0.726-4.25,0.506c-1.544,1.232-2.167,3.013-1.438,4.032
				l-0.009,0.008l23.209,29.084c0.804,1.007,2.731,0.803,4.306-0.453c1.576-1.258,2.203-3.093,1.399-4.1l0.011-0.009l-23.209-29.085
				L139.134,244.244z"/>
		</g>
		<g>
			<path opacity="0.59" enable-background="new    " d="M160.657,228.301c-0.845-0.942-2.862-0.627-4.575,0.739
				s-2.466,3.264-1.736,4.297l-0.01,0.008l23.416,29.343c0.81,1.016,2.884,0.708,4.632-0.688c1.748-1.395,2.509-3.35,1.699-4.364
				l0.013-0.011l-23.416-29.343L160.657,228.301z"/>
			<path fill="#FFFFFF" d="M158.905,228.777c-0.832-0.938-2.706-0.725-4.25,0.507c-1.543,1.231-2.166,3.012-1.436,4.031l-0.01,0.008
				l23.209,29.084c0.803,1.007,2.73,0.804,4.306-0.454c1.576-1.257,2.203-3.092,1.399-4.099l0.012-0.01l-23.209-29.085
				L158.905,228.777z"/>
		</g>
		<g>
			<path opacity="0.59" enable-background="new    " d="M180.569,212.763c-0.846-0.943-2.861-0.627-4.573,0.739
				c-1.713,1.367-2.468,3.264-1.737,4.296l-0.01,0.008l23.416,29.344c0.811,1.015,2.885,0.708,4.633-0.688
				c1.748-1.395,2.508-3.349,1.698-4.364l0.013-0.011l-23.416-29.344L180.569,212.763z"/>
			<path fill="#FFFFFF" d="M178.676,213.311c-0.832-0.938-2.707-0.725-4.25,0.507c-1.543,1.232-2.166,3.012-1.436,4.031
				l-0.009,0.008l23.209,29.084c0.803,1.007,2.729,0.804,4.306-0.453c1.576-1.258,2.202-3.092,1.399-4.099l0.012-0.011
				l-23.209-29.084L178.676,213.311z"/>
		</g>
		<g>
			<path opacity="0.59" enable-background="new    " d="M200.182,196.857c-0.845-0.942-2.862-0.627-4.574,0.739
				c-1.713,1.367-2.468,3.266-1.736,4.297l-0.01,0.008l23.415,29.343c0.811,1.016,2.884,0.708,4.633-0.688
				c1.747-1.395,2.509-3.35,1.698-4.364l0.014-0.012l-23.415-29.342L200.182,196.857z"/>
			<path fill="#FFFFFF" d="M198.147,197.479c-0.833-0.938-2.708-0.726-4.251,0.506c-1.544,1.232-2.167,3.012-1.437,4.032
				l-0.009,0.008l23.208,29.083c0.804,1.007,2.731,0.805,4.307-0.452c1.574-1.257,2.202-3.093,1.398-4.1l0.013-0.01l-23.209-29.084
				L198.147,197.479z"/>
		</g>
		<g>
			<path opacity="0.59" enable-background="new    " d="M219.409,180.48c-0.845-0.943-2.861-0.627-4.574,0.74
				c-1.712,1.366-2.466,3.263-1.736,4.296l-0.009,0.008l23.415,29.344c0.811,1.015,2.884,0.707,4.632-0.688
				c1.749-1.396,2.51-3.35,1.699-4.365l0.013-0.01l-23.415-29.344L219.409,180.48z"/>
			<path fill="#FFFFFF" d="M217.232,181.172c-0.832-0.937-2.707-0.724-4.25,0.508c-1.544,1.231-2.167,3.012-1.437,4.03l-0.009,0.008
				l23.209,29.084c0.804,1.007,2.73,0.804,4.305-0.452c1.575-1.257,2.202-3.092,1.398-4.099l0.014-0.011l-23.21-29.084
				L217.232,181.172z"/>
		</g>
		<g>
			<path opacity="0.59" enable-background="new    " d="M238.638,164.104c-0.845-0.942-2.861-0.626-4.573,0.739
				c-1.712,1.367-2.468,3.264-1.736,4.296l-0.012,0.01l23.416,29.343c0.81,1.016,2.884,0.707,4.634-0.688
				c1.747-1.395,2.508-3.349,1.698-4.364l0.014-0.011l-23.416-29.343L238.638,164.104z"/>
			<path fill="#FFFFFF" d="M236.318,164.867c-0.832-0.938-2.707-0.724-4.25,0.508c-1.544,1.231-2.167,3.012-1.437,4.03l-0.009,0.008
				l23.209,29.084c0.803,1.007,2.73,0.804,4.305-0.452c1.575-1.257,2.202-3.092,1.398-4.099l0.013-0.011l-23.209-29.084
				L236.318,164.867z"/>
		</g>
		<g>
			<path opacity="0.59" enable-background="new    " d="M257.864,147.727c-0.846-0.942-2.862-0.627-4.574,0.739
				c-1.713,1.367-2.468,3.264-1.736,4.297l-0.011,0.008l23.416,29.344c0.81,1.016,2.884,0.708,4.633-0.688
				c1.748-1.395,2.508-3.349,1.698-4.363l0.015-0.012l-23.416-29.343L257.864,147.727z"/>
			<path fill="#FFFFFF" d="M255.403,148.562c-0.833-0.937-2.707-0.724-4.251,0.508s-2.166,3.011-1.437,4.031l-0.01,0.008
				l23.209,29.085c0.803,1.006,2.731,0.803,4.306-0.454c1.576-1.257,2.202-3.093,1.399-4.099l0.013-0.01l-23.209-29.084
				L255.403,148.562z"/>
		</g>
	</g>
</g>
</svg>
