<svg xmlns="http://www.w3.org/2000/svg" xmlns:xlink="http://www.w3.org/1999/xlink" version="1.1" x="0px" y="0px" viewBox="0 0 100 125" enable-background="new 0 0 100 100" xml:space="preserve"><path d="M70.312,46.183c-0.185-0.981-0.408-1.897-0.71-2.682c-0.54-1.569-1.502-3.936-1.53-2.365  c-0.013,1.063-0.139,4.74-0.152,6.121h-3.36v-6.528h-1.884v6.528h-3.441v-6.528h-1.886v6.528h-3.439v-6.528h-1.886v6.528h-3.441  v-6.528h-1.884v6.528h-3.444v-6.528h-1.883v6.528h-3.44v-6.528h-1.886v6.528h-3.356c-0.016-1.441,0.191-4.708,0.18-5.811  c-0.028-1.571-1.322,0.328-1.86,1.898c-0.141,0.393-0.294,0.816-0.39,1.267c-0.113,0.45-0.248,0.924-0.32,1.415  c-0.166,0.98-0.256,2.027-0.262,3.073c0.004,1.048,0.088,2.093,0.255,3.074c0.188,0.982,0.411,1.897,0.711,2.682  c0.541,1.57,1.726,4.128,1.756,2.559c0.012-1.127-0.085-5.085-0.068-6.559h3.355v6.617h1.886v-6.617h3.44v6.617h1.883v-6.617h3.444  v6.617h1.884v-6.617h3.441v6.617h1.886v-6.617h3.439l0.473,6.712l1.413-0.095v-6.617h3.441v6.617h1.884v-6.617h3.354  c0.017,1.531,0.032,5.39,0.045,6.559c0.03,1.569,1.099-0.832,1.639-2.401c0.142-0.394,0.294-0.818,0.392-1.27  c0.11-0.448,0.246-0.922,0.319-1.413c0.167-0.98,0.257-2.027,0.262-3.073C70.566,48.209,70.48,47.164,70.312,46.183z"/><path d="M83.034,32.09c-0.756-0.568-1.534-1.129-2.354-1.677c-1.343-0.896-2.815-1.78-4.376-2.63  c-8.217-4.468-17.523-6.938-26.208-6.954c-8.64,0-17.942,2.42-26.193,6.811c-1.586,0.845-3.081,1.726-4.446,2.619  c-0.794,0.52-1.548,1.053-2.283,1.591C9.584,37.417,5.229,43.854,5.229,49.514c0,5.688,4.351,12.277,11.935,18.08  c2.075,1.587,4.339,3.064,6.729,4.395c8.275,4.591,17.609,7.142,26.286,7.183h0.201c8.559,0,17.768-2.498,25.929-7.029  c2.385-1.324,4.648-2.809,6.73-4.411c7.455-5.744,11.73-12.283,11.73-17.938C94.771,44.144,90.493,37.69,83.034,32.09z   M83.275,64.395V35.326c5.784,4.796,9.075,10.022,9.075,14.466C92.351,54.156,88.98,59.553,83.275,64.395z M50.381,76.75h-0.191  c-8.365-0.038-17.371-2.553-25.396-7.088V29.887c7.974-4.282,16.977-6.637,25.389-6.637c8.357,0.015,17.303,2.419,25.229,6.772  v39.806C67.501,74.294,58.626,76.75,50.381,76.75z M16.927,35.061v29.198c-5.83-4.899-9.276-10.351-9.276-14.745  C7.65,45.061,11.015,39.838,16.927,35.061z"/></svg>