<?xml version="1.0" encoding="UTF-8" standalone="no"?>
<!-- Created with Inkscape (http://www.inkscape.org/) -->

<svg
   xmlns:dc="http://purl.org/dc/elements/1.1/"
   xmlns:cc="http://creativecommons.org/ns#"
   xmlns:rdf="http://www.w3.org/1999/02/22-rdf-syntax-ns#"
   xmlns:svg="http://www.w3.org/2000/svg"
   xmlns="http://www.w3.org/2000/svg"
   xmlns:sodipodi="http://sodipodi.sourceforge.net/DTD/sodipodi-0.dtd"
   xmlns:inkscape="http://www.inkscape.org/namespaces/inkscape"
   id="svg3336"
   version="1.1"
   inkscape:version="0.91 r13725"
   width="959.0625"
   height="236.25"
   viewBox="0 0 959.0625 236.25"
   sodipodi:docname="New England Patriots wordmark 2013.svg">
  <metadata
     id="metadata3342">
    <rdf:RDF>
      <cc:Work
         rdf:about="">
        <dc:format>image/svg+xml</dc:format>
        <dc:type
           rdf:resource="http://purl.org/dc/dcmitype/StillImage" />
        <dc:title></dc:title>
      </cc:Work>
    </rdf:RDF>
  </metadata>
  <defs
     id="defs3340" />
  <sodipodi:namedview
     pagecolor="#ffffff"
     bordercolor="#666666"
     borderopacity="1"
     objecttolerance="10"
     gridtolerance="10"
     guidetolerance="10"
     inkscape:pageopacity="0"
     inkscape:pageshadow="2"
     inkscape:window-width="1600"
     inkscape:window-height="837"
     id="namedview3338"
     showgrid="false"
     inkscape:zoom="1.5066797"
     inkscape:cx="479.53125"
     inkscape:cy="118.125"
     inkscape:window-x="1358"
     inkscape:window-y="-8"
     inkscape:window-maximized="1"
     inkscape:current-layer="svg3336" />
  <path
     style="fill:#002244"
     d="m 10.3125,184.39922 0,-50.91328 -4.246159,-2.99297 C 3.7309535,128.84684 1.410641,127.5 0.91009097,127.5 c -1.33234722,0 -1.11191077,-3.52918 0.27523723,-4.40654 0.6519305,-0.41234 2.972243,-2.91763 5.15625,-5.56732 l 3.9709218,-4.8176 0,-50.729271 0,-50.729269 44.863103,0 44.863097,0 2.29521,2.109375 c 1.26235,1.160156 3.96067,3.359707 5.99627,4.887892 2.03558,1.528185 4.16979,3.215685 4.74267,3.75 0.57288,0.534315 2.66046,2.237108 4.63907,3.783983 1.97862,1.546875 4.56849,3.704627 5.75528,4.795004 l 2.1578,1.982503 0,42.863938 0,42.863935 -7.73437,7.30438 c -14.95636,14.12484 -17.12667,15.93986 -19.078861,15.95561 -1.083206,0.008 -3.192581,0.39439 -4.6875,0.857 -1.49491,0.46263 -5.882082,1.34974 -9.749269,1.97138 -3.867188,0.62164 -8.296875,1.5404 -9.84375,2.0417 -1.546875,0.5013 -5.132813,1.30126 -7.96875,1.77768 -10.110271,1.6985 -15.110018,2.65169 -16.916935,3.22518 -1.776977,0.56399 -1.833065,1.67848 -1.833065,36.42403 l 0,35.84224 -3.515625,1.18304 c -1.933594,0.65066 -4.992188,1.7499 -6.796875,2.44274 -1.804688,0.69284 -6.445313,2.16364 -10.3125,3.26845 -3.867188,1.10479 -8.416657,2.62156 -10.109932,3.37058 -1.693275,0.74903 -3.908118,1.36186 -4.921875,1.36186 -1.809964,0 -1.843193,-0.91786 -1.843193,-50.91328 z m 76.875,-102.83672 0,-30 -19.6875,0 -19.6875,0 0,30 0,30 19.6875,0 19.6875,0 0,-30 z m 842.34375,146.68182 c -2.57813,-0.72414 -7.64063,-2.00387 -11.25,-2.84383 -3.60938,-0.83996 -8.03906,-2.07182 -9.84375,-2.73746 -1.80469,-0.66566 -7.92188,-2.34729 -13.59375,-3.73697 -5.67188,-1.38968 -12.63281,-3.15575 -15.46875,-3.9246 -2.83594,-0.76884 -6.21094,-1.60963 -7.5,-1.86841 -1.43784,-0.28865 -7.49729,-5.78638 -15.67691,-14.22366 l -13.33316,-13.75314 -0.0262,-16.28906 -0.0262,-16.28907 3.04687,0.64037 c 1.67579,0.35221 8.01599,1.47467 14.08935,2.49435 6.07335,1.01969 12.11253,2.26082 13.4204,2.75807 1.30787,0.49725 3.82704,0.90409 5.59816,0.90409 l 3.22022,0 0,7.87703 0,7.87705 2.95239,1.0292 c 1.62383,0.56608 3.93808,1.02922 5.1428,1.02922 1.20473,0 3.98943,0.39577 6.18823,0.87949 7.64636,1.68213 18.08201,3.75843 21.57595,4.29279 l 3.51563,0.53769 0,-21.5625 0,-21.5625 -3.51563,-0.53234 c -1.93359,-0.29278 -6.46875,-0.96291 -10.07812,-1.48917 -7.83395,-1.14222 -22.34548,-3.43369 -29.58769,-4.6721 -2.86697,-0.49025 -6.4529,-0.90252 -7.96875,-0.91615 -2.07291,-0.0187 -4.29171,-1.47099 -8.95149,-5.85937 -3.4075,-3.20903 -8.99734,-8.44979 -12.42188,-11.64614 l -6.22644,-5.81156 0,-37.976611 0,-37.976615 10.80115,-10.821207 10.80116,-10.821207 35.38425,0 35.38425,0 11.93957,11.96616 11.93962,11.966161 0,17.096339 0,17.09634 -19.6875,0 -19.6875,0 0,-9.375 0,-9.375 -19.21875,0 -19.21875,0 0,21.379658 0,21.379662 10.54687,1.56619 c 5.80079,0.8614 14.55469,2.01903 19.45313,2.57251 20.73538,2.34288 22.80015,2.79264 26.01731,5.66717 1.67485,1.49649 3.04519,2.97294 3.04519,3.281 0,0.30807 1.37109,1.92664 3.04687,3.59681 1.67579,1.67018 5.89454,6.02368 9.375,9.67444 l 6.32813,6.63775 0,42.6944 0,42.69441 -2.8125,1.66138 c -1.54688,0.91376 -2.8125,1.94832 -2.8125,2.29902 0,0.3507 -2.08331,1.97449 -4.62956,3.60842 -2.54625,1.63393 -4.7611,3.26658 -4.92188,3.62811 -0.37922,0.85282 -8.47012,6.74114 -9.14887,6.6583 -0.28514,-0.0348 -2.62782,-0.65576 -5.20594,-1.37991 z M 88.125,210.0863 c 0,-0.46816 1.242122,-1.62832 2.760272,-2.57813 4.437572,-2.77629 27.538358,-19.32132 29.514378,-21.1385 0.99323,-0.9134 2.5224,-1.88814 3.39813,-2.16609 1.96187,-0.62267 3.77581,-5.5942 6.49364,-17.79733 1.14838,-5.15625 2.44284,-10.85156 2.87659,-12.65625 0.43375,-1.80469 1.62299,-7.07813 2.64278,-11.71875 1.01977,-4.64063 2.25787,-9.91406 2.75132,-11.71875 0.49343,-1.80469 1.41841,-5.8125 2.05548,-8.90625 0.63708,-3.09375 1.68808,-7.52344 2.33556,-9.84375 1.09896,-3.93824 1.91582,-7.49272 4.41673,-19.21875 0.54985,-2.578125 1.5295,-6.585938 2.17697,-8.90625 0.64748,-2.320313 1.69515,-6.75 2.32815,-9.84375 0.633,-3.09375 1.68067,-7.523438 2.32815,-9.84375 0.64748,-2.320312 1.65414,-6.433594 2.23703,-9.140625 0.5829,-2.707031 1.53674,-7.136719 2.11964,-9.84375 0.58289,-2.707031 1.58956,-6.820313 2.23703,-9.140625 0.64748,-2.320313 1.69515,-6.75 2.32815,-9.84375 0.633,-3.09375 1.76962,-7.628906 2.5258,-10.078125 l 1.37488,-4.453125 25.65059,0 c 14.86466,0 25.87793,0.367872 26.19126,0.874857 0.29739,0.481171 0.94016,2.696015 1.4284,4.921875 0.48824,2.22586 2.34308,9.531393 4.12186,16.234518 7.64827,28.821509 9.30557,35.191398 11.4641,44.0625 1.25462,5.15625 2.71168,10.718234 3.23792,12.359965 0.92851,2.896765 2.88803,10.316445 8.37259,31.702535 2.44977,9.55245 7.43403,28.40776 9.54112,36.09375 0.49475,1.80469 1.27566,4.96875 1.73535,7.03125 0.4597,2.0625 1.50043,6.24698 2.31276,9.29883 0.81232,3.05186 1.14737,5.87127 0.74454,6.26536 -0.40283,0.39408 -7.91521,1.16175 -16.69417,1.70592 -8.77897,0.54418 -17.92198,1.25809 -20.31781,1.58647 l -4.35605,0.59706 -1.01031,-3.86744 c -0.55569,-2.1271 -1.49846,-5.66042 -2.09506,-7.85183 -1.10505,-4.05904 -1.85006,-7.55222 -3.52425,-16.52473 -0.51727,-2.77219 -1.13733,-5.2372 -1.37792,-5.47779 -0.56919,-0.56918 -16.14326,1.43582 -24.19817,3.11527 -3.45335,0.72002 -7.6721,1.31489 -9.375,1.32193 -5.25673,0.0217 -7.3,0.96676 -7.81575,3.61485 -0.26418,1.35635 -0.85181,4.36454 -1.30586,6.68485 -0.45404,2.32031 -1.31374,6.75 -1.91043,9.84375 -0.59669,3.09375 -1.69195,7.77145 -2.43389,10.3949 -0.74195,2.62344 -1.349,5.83532 -1.349,7.13752 0,2.15508 -0.526,2.47215 -5.85937,3.53205 -3.22266,0.64044 -8.17969,1.71197 -11.01563,2.3812 -5.1032,1.20424 -9.24202,2.06398 -20.15625,4.18694 -3.09375,0.60177 -7.94531,1.6671 -10.78125,2.36739 -2.83594,0.70029 -7.6875,1.75898 -10.78125,2.35266 -3.09375,0.59366 -7.972987,1.67827 -10.84275,2.41023 -6.147258,1.56794 -6.501,1.59404 -6.501,0.47966 z m 114.08197,-95.12269 c -0.2715,-0.70751 -0.76541,-3.34423 -1.09757,-5.85938 -0.33217,-2.51514 -1.19154,-7.5261 -1.90972,-11.13548 -0.71817,-3.60938 -1.77117,-9.726563 -2.33999,-13.59375 -1.93921,-13.183865 -2.2847,-14.53125 -3.72605,-14.53125 -0.76407,0 -1.46195,0.632812 -1.55085,1.40625 -0.41782,3.635045 -2.43702,16.173251 -3.62348,22.5 -4.64745,24.78232 -5.22916,22.5 5.73474,22.5 7.24769,0 8.91015,-0.25121 8.51292,-1.28639 z m 628.88678,88.93616 c -4.64063,-1.14692 -10.96875,-2.61452 -14.0625,-3.26134 -3.09375,-0.64681 -7.94531,-1.729 -10.78125,-2.40486 -2.83594,-0.67586 -7.05469,-1.65475 -9.375,-2.17527 -2.32031,-0.52054 -7.17188,-1.63749 -10.78125,-2.48211 -6.76209,-1.58238 -12.22503,-2.80413 -18.75,-4.19332 -2.0625,-0.43911 -6.59766,-1.51111 -10.07813,-2.38224 l -6.32812,-1.58384 0,-41.03908 0,-41.03907 -3.28125,-1.55706 c -1.80469,-0.85638 -3.28125,-1.88578 -3.28125,-2.28756 0,-0.40179 1.47656,-1.96167 3.28125,-3.46639 l 3.28125,-2.73587 0,-24.145882 0,-24.145878 -19.21875,0 -19.21875,0 0,-16.875 0,-16.875 57.65625,0 57.65625,0 0,16.875 0,16.875 -19.21875,0 -19.21875,0 0,24.744801 0,24.744799 5.35034,4.73586 c 5.32825,4.71632 5.34083,4.74 3.04688,5.73787 -1.26691,0.5511 -3.5691,1.7682 -5.11597,2.70465 l -2.8125,1.70265 -0.24716,30.60912 -0.24717,30.60912 5.40342,3.53104 c 2.97187,1.94207 5.61435,3.74435 5.87216,4.00509 0.85226,0.86192 11.2115,7.5 11.70433,7.5 0.26574,0 1.22145,0.65123 2.12379,1.44719 0.90235,0.79596 5.64844,4.06549 10.54688,7.26563 4.89844,3.20013 9.11719,6.07597 9.375,6.39075 0.25781,0.31476 1.81309,1.26098 3.45618,2.1027 3.25411,1.66701 4.88468,3.49755 2.92728,3.28627 -0.67497,-0.0728 -5.02409,-1.07086 -9.66471,-2.21777 z M 288.75,136.90106 l 0,-39.34893 -4.6875,-2.01652 c -2.57813,-1.10907 -4.6875,-2.29547 -4.6875,-2.63643 0,-0.34095 1.37109,-1.425483 3.04687,-2.410066 5.5707,-3.272985 5.39063,-2.413347 5.39063,-25.734649 l 0,-21.629465 -19.21875,0 -19.21875,0 0,-15.9375 0,-15.9375 58.125,0 58.125,0 0,15.46875 0,15.46875 -19.21875,0 -19.21875,0 0.0108,22.265625 0.0108,22.265625 3.77117,1.806982 3.77117,1.806981 -3.78192,3.853507 -3.78193,3.8535 0,39.10514 0,39.10514 -19.21875,0 -19.21875,0 0,-39.34894 z m 337.52901,32.20776 -23.87725,-1.26641 -8.93525,-4.34936 c -4.9144,-2.39214 -9.88448,-4.79047 -11.04464,-5.32962 l -2.10937,-0.98027 0,-31.13689 0,-31.13688 -4.26246,-2.7727 -4.26245,-2.772689 4.26245,-3.814984 4.26246,-3.814984 0.0298,-27.038892 c 0.0316,-28.681651 0.0305,-28.67409 4.65769,-31.059787 1.28906,-0.664617 3.77201,-2.457586 5.51767,-3.984375 1.74565,-1.526788 3.43315,-2.776969 3.75,-2.778178 0.31684,-0.0012 2.05264,-1.265846 3.85733,-2.810301 l 3.28125,-2.808101 38.46294,-0.0022 38.46295,-0.0022 2.85206,2.578125 c 1.56864,1.417969 4.57505,4.054688 6.6809,5.859375 2.10586,1.804688 5.97894,5.124512 8.60687,7.377387 l 4.77803,4.096051 0,27.939225 0,27.939224 4.37515,4.37515 c 2.51677,2.516764 3.96587,4.638814 3.41161,4.995894 -0.52995,0.34141 -2.49588,1.67542 -4.36875,2.96448 l -3.40519,2.34375 -0.007,28.62599 -0.007,28.62599 -3.04687,1.74782 c -1.67579,0.96129 -5.8458,3.5835 -9.2667,5.82712 l -6.21953,4.07933 -16.28017,-0.12488 c -8.9541,-0.0687 -27.02493,-0.69477 -40.15741,-1.3913 z m 36.53349,-48.11244 0,-20.56611 -4.1922,-4.51201 c -2.30572,-2.4816 -4.1877,-4.722948 -4.18219,-4.98076 0.006,-0.257813 1.892,-1.853213 4.1922,-3.545336 l 4.18219,-3.076586 0,-20.595289 0,-20.595289 -22.03125,0 -22.03125,0 0,19.961055 0,19.961055 4.24552,4.166657 4.24551,4.166658 -4.01114,1.899855 -4.01114,1.89986 -0.25276,21.01511 c -0.19468,16.18657 0.0207,21.1887 0.9375,21.77058 0.65465,0.4155 3.93245,0.79881 7.28401,0.8518 3.35156,0.053 9.67969,0.64357 14.0625,1.31239 4.38281,0.66883 11.02734,1.26474 14.76562,1.32426 l 6.79688,0.10822 0,-20.56612 z m -284.07179,10.48799 -0.009,-34.45312 -4.22471,-2.92064 -4.22471,-2.920649 4.234,-5.143006 4.23409,-5.143006 0,-34.826974 0,-34.826975 46.4688,0 46.4688,0 3.45232,2.578125 c 1.89876,1.417969 4.2653,3.311581 5.25896,4.208028 0.99366,0.896447 2.57603,1.874094 3.51639,2.172551 0.94035,0.298456 1.70973,0.936094 1.70973,1.416972 0,0.480878 0.63281,0.874324 1.40625,0.874324 0.77344,0 1.40746,0.316406 1.40895,0.703125 0.002,0.386719 1.26589,1.546875 2.8098,2.578125 l 2.80711,1.875 0,28.59375 0,28.59375 -2.80711,1.875 c -1.54391,1.03125 -2.80832,2.191406 -2.8098,2.578125 C 488.43833,89.683594 487.97,90 487.39861,90 c -2.00512,0 -17.68009,11.73226 -17.69553,13.24459 -0.008,0.8392 0.61723,2.05101 1.39067,2.69291 0.77344,0.6419 1.40625,1.50245 1.40625,1.91233 0,0.61173 5.92237,11.2784 9.34866,16.83767 0.47669,0.77344 1.77844,3.09375 2.89281,5.15625 1.11436,2.0625 2.29637,3.96094 2.6267,4.21875 0.33032,0.25781 1.32416,1.94531 2.20853,3.75 1.84791,3.77091 7.13822,13.1418 8.20357,14.53125 1.00767,1.31422 5.65723,9.81719 5.65723,10.34576 0,0.23952 -9.40284,0.43549 -20.89522,0.43549 l -20.89521,0 -3.34189,-6.32813 c -5.14555,-9.7435 -6.85746,-12.84761 -7.36768,-13.35937 -0.25781,-0.25859 -1.12651,-1.73547 -1.93043,-3.28196 -2.71732,-5.22718 -8.65152,-15.91677 -10.66867,-19.21804 -1.10271,-1.80469 -3.04324,-5.37979 -4.31228,-7.94468 -1.26905,-2.56488 -2.83471,-5.23173 -3.47924,-5.92634 -0.64454,-0.6946 -1.17188,-1.86558 -1.17188,-2.6022 0,-1.02334 -1.4375,-1.33928 -6.09375,-1.33928 l -6.09375,0 0,31.40625 0,31.40625 -19.21875,0 -19.21875,0 -0.009,-34.45313 z m 77.82179,-73.84714 0,-15.487771 -19.45313,0.253396 -19.45312,0.253395 -0.26054,14.021314 c -0.14331,7.711722 -0.0511,14.567191 0.20495,15.234375 0.35991,0.937911 4.83141,1.213061 19.71367,1.213061 l 19.24817,0 0,-15.48777 z m 58.12504,70.56589 4e-5,-34.92187 -3.51567,-3.042699 c -3.10615,-2.688279 -3.32995,-3.154797 -1.92131,-4.00506 3.98123,-2.403113 4.18455,-3.216271 4.81762,-19.268413 0.34061,-8.636121 0.61928,-24.704971 0.61928,-35.708558 l 0,-20.00652 20.625,0 20.625,0 0,35.29592 0,35.295919 3.28125,3.18671 C 562.91814,88.621351 563.32938,90 560.70168,90 c -4.98205,0 -4.76418,-1.698075 -4.76418,37.13155 l 0,35.99345 -20.625,0 -20.625,0 4e-5,-34.92188 z"
     id="path3346"
     inkscape:connector-curvature="0" />
</svg>
